<?xml version="1.0" standalone="no"?>
<!DOCTYPE svg PUBLIC "-//W3C//DTD SVG 20010904//EN"
 "http://www.w3.org/TR/2001/REC-SVG-20010904/DTD/svg10.dtd">
<svg version="1.0" xmlns="http://www.w3.org/2000/svg"
 width="383.000000pt" height="383.000000pt" viewBox="0 0 383.000000 383.000000"
 preserveAspectRatio="xMidYMid meet">
<metadata>
Created by potrace 1.11, written by Peter Selinger 2001-2013
</metadata>
<g transform="translate(0.000000,383.000000) scale(0.100000,-0.100000)"
fill="#000000" stroke="none">
<path d="M1480 3517 c-45 -9 -125 -56 -146 -86 -7 -9 -22 -27 -34 -41 -12 -14
-34 -41 -49 -60 -14 -19 -28 -37 -32 -40 -3 -3 -70 -86 -149 -185 -79 -99
-147 -182 -150 -185 -3 -3 -33 -39 -65 -80 -67 -84 -85 -107 -100 -124 -6 -6
-46 -56 -90 -111 -44 -55 -87 -109 -97 -120 -120 -143 -292 -363 -307 -394
-28 -54 -33 -137 -11 -197 9 -27 95 -168 190 -314 95 -146 187 -287 205 -315
18 -27 70 -108 117 -180 106 -162 167 -257 298 -460 135 -208 153 -231 211
-261 76 -38 137 -40 254 -9 189 51 310 83 460 124 83 22 267 71 410 109 769
205 720 189 783 252 64 65 75 109 87 375 3 66 7 154 10 195 2 41 7 129 10 195
3 66 7 147 10 180 2 33 7 123 10 200 3 77 8 165 10 195 9 113 19 349 19 455 1
87 -3 117 -17 142 -27 50 -76 102 -116 122 -20 11 -373 148 -786 306 -412 157
-759 291 -769 297 -31 17 -117 25 -166 15z"/>
</g>
</svg>
